# xmcd
#
# Track frame offsets: 
#        150
#        2973
#        18178
#        48777
#        50030
#        65939
#        80576
#        82422
#        98122
#        111381
#        127243
#        127685
#        154971
#        175993
#        176666
#        207344
#        231140
#        233241
#        244983
#        257865
#        258690
#
# Disc length: 3708 seconds
#
# Revision: 0
# Processed by: cddbd v1.5.2PL0 Copyright (c) Steve Scherf et al.
# Submitted via: ExactAudioCopy v1.0b3
#
DISCID=380e7a15
DTITLE=Różni wykonawcy - Okolice bluesa 100% live
DYEAR=2013
DGENRE=Blues
TTITLE0=01.Johnny Coyoye - Zapowiedź
TTITLE1=02.Johnny Coyote - I m Hear
TTITLE2=03.Johnny Coyote - Enumeration
TTITLE3=04.Wolna Sobota - Zapowiedź
TTITLE4=05.Wolna Sobota - Stary duży Fiat
TTITLE5=06.Wolna Sobota - Hej mała
TTITLE6=07.Boogie Chilli - Zapowiedź
TTITLE7=08.Boogie Chilli - Little Red Rooster
TTITLE8=09.Boogie Chilli - Baby Please Don t Go
TTITLE9=10.Boogie Chilli - Standing Around Crying
TTITLE10=11.Tomek Olszanowski Band - Zapowiedź
TTITLE11=12.Tomek Olszanowski Band - Do pracy
TTITLE12=13.Tomek Olszanowski Band - Cyrk
TTITLE13=14.Acoustic Trio - Zapowiedź
TTITLE14=15.Acoustic  Trio - Przyjaciele
TTITLE15=16.Acoustic Trio - Droga
TTITLE16=17.AroundThe Blues - Zapowiedź
TTITLE17=18.Around The Blues - Dzióbka dej
TTITLE18=19.Around The Blues - What Do Bad Girls Get
TTITLE19=20. - Outro 1
TTITLE20=21.Przemo Łukasiewicz - Walk On
EXTD=
EXTT0=
EXTT1=
EXTT2=
EXTT3=
EXTT4=
EXTT5=
EXTT6=
EXTT7=
EXTT8=
EXTT9=
EXTT10=
EXTT11=
EXTT12=
EXTT13=
EXTT14=
EXTT15=
EXTT16=
EXTT17=
EXTT18=
EXTT19=
EXTT20=
PLAYORDER=
